<svg width="100" height="100" viewBox="0 0 100 100" fill="none" xmlns="http://www.w3.org/2000/svg">
<rect width="100" height="100" rx="4" fill="#1442B8"/>
<path d="M24.64 77C24.16 77 23.76 76.84 23.44 76.52C23.12 76.1467 22.96 75.7467 22.96 75.32C22.96 75.0533 22.9867 74.8133 23.04 74.6L42.08 23.16C42.24 22.5733 42.56 22.0667 43.04 21.64C43.52 21.2133 44.1867 21 45.04 21H55.28C56.1333 21 56.8 21.2133 57.28 21.64C57.76 22.0667 58.08 22.5733 58.24 23.16L77.28 74.6C77.3333 74.8133 77.36 75.0533 77.36 75.32C77.36 75.7467 77.2 76.1467 76.88 76.52C76.56 76.84 76.16 77 75.68 77H67.36C66.56 77 65.9733 76.8133 65.6 76.44C65.2267 76.0667 64.9867 75.72 64.88 75.4L61.44 66.44H38.88L35.44 75.4C35.3333 75.72 35.0933 76.0667 34.72 76.44C34.3467 76.8133 33.76 77 32.96 77H24.64ZM41.84 56.12H58.4L50.16 33.08L41.84 56.12Z" fill="#030F30" fill-opacity="0.5"/>
</svg>
