<svg width="50" height="50" viewBox="0 0 50 50" fill="none" xmlns="http://www.w3.org/2000/svg">
<rect width="50" height="50" rx="4" fill="#F3F3F3"/>
<path d="M8.504 33L13.304 16.2H17.864L22.64 33H19.976L18.872 29.04H12.296L11.192 33H8.504ZM12.944 26.64H18.224L15.776 17.808H15.392L12.944 26.64ZM26.4562 33L21.7762 16.2H24.4642L28.5442 31.368H28.8562L32.9122 16.2H35.6002L30.9442 33H26.4562ZM37.0126 33.336C36.4526 33.336 35.9806 33.152 35.5966 32.784C35.2286 32.416 35.0446 31.944 35.0446 31.368C35.0446 30.792 35.2286 30.328 35.5966 29.976C35.9806 29.608 36.4526 29.424 37.0126 29.424C37.5726 29.424 38.0366 29.608 38.4046 29.976C38.7886 30.344 38.9806 30.808 38.9806 31.368C38.9806 31.944 38.7886 32.416 38.4046 32.784C38.0366 33.152 37.5726 33.336 37.0126 33.336Z" fill="black"/>
</svg>
